<svg width="2034" height="2062" viewBox="0 0 2034 2062" fill="none" xmlns="http://www.w3.org/2000/svg">
    <g opacity="0.05">
        <path d="M1131.87 79.0791C1131.87 122.753 1096.77 158.158 1053.47 158.158C1010.18 158.158 975.075 122.753 975.075 79.0791C975.075 35.4049 1010.18 0 1053.47 0C1096.77 0 1131.87 35.4049 1131.87 79.0791Z"
              fill="url(#paint0_linear_1896_38138)"/>
        <path d="M1305.45 211.756C1305.45 255.43 1270.35 290.835 1227.05 290.835C1183.75 290.835 1148.65 255.43 1148.65 211.756C1148.65 168.082 1183.75 132.677 1227.05 132.677C1270.35 132.677 1305.45 168.082 1305.45 211.756Z"
              fill="url(#paint1_linear_1896_38138)"/>
        <path d="M1003.61 516.871C987.835 516.888 972.408 512.182 959.284 503.349C946.161 494.516 935.931 481.954 929.891 467.252C923.851 452.551 922.272 436.372 925.355 420.765C928.438 405.158 936.043 390.825 947.208 379.58L995.337 331.035C1010.37 316.436 1030.47 308.365 1051.34 308.553C1072.2 308.742 1092.16 317.175 1106.93 332.043C1121.7 346.91 1130.1 367.027 1130.33 388.072C1130.55 409.117 1122.59 429.413 1108.15 444.601L1060.02 493.147C1052.64 500.669 1043.85 506.639 1034.17 510.712C1024.49 514.784 1014.1 516.878 1003.61 516.871Z"
              fill="url(#paint2_linear_1896_38138)"/>
        <path d="M618.79 905.456C608.314 905.504 597.932 903.45 588.249 899.415C578.566 895.38 569.774 889.444 562.386 881.952C547.531 866.852 539.195 846.441 539.195 825.169C539.195 803.896 547.531 783.486 562.386 768.385L803.466 525.437C810.858 517.951 819.641 512.007 829.311 507.945C838.981 503.883 849.35 501.781 859.825 501.761C870.3 501.74 880.677 503.801 890.362 507.826C900.048 511.851 908.853 517.76 916.274 525.217C923.696 532.674 929.589 541.532 933.616 551.286C937.643 561.04 939.726 571.499 939.747 582.065C939.767 592.631 937.724 603.097 933.734 612.867C929.744 622.636 923.885 631.517 916.492 639.003L675.195 881.952C667.806 889.444 659.015 895.38 649.332 899.415C639.649 903.45 629.267 905.504 618.79 905.456Z"
              fill="url(#paint3_linear_1896_38138)"/>
        <path d="M1614.69 1437.7C1598.92 1437.72 1583.49 1433.01 1570.37 1424.18C1557.24 1415.35 1547.01 1402.79 1540.97 1388.08C1534.93 1373.38 1533.35 1357.2 1536.44 1341.6C1539.52 1325.99 1547.12 1311.66 1558.29 1300.41L1896.5 958.835C1903.85 951.133 1912.65 944.988 1922.39 940.759C1932.12 936.53 1942.6 934.303 1953.2 934.207C1963.8 934.111 1974.31 936.149 1984.12 940.201C1993.93 944.254 2002.84 950.239 2010.33 957.807C2017.82 965.374 2023.73 974.373 2027.73 984.275C2031.73 994.177 2033.73 1004.78 2033.61 1015.48C2033.5 1026.17 2031.27 1036.73 2027.06 1046.54C2022.85 1056.35 2016.74 1065.22 2009.09 1072.62L1670.44 1414.2C1655.65 1429.13 1635.62 1437.58 1614.69 1437.7Z"
              fill="url(#paint4_linear_1896_38138)"/>
        <path d="M1421.96 1632.11C1406.18 1632.12 1390.76 1627.42 1377.63 1618.59C1364.51 1609.75 1354.28 1597.19 1348.24 1582.49C1342.2 1567.79 1340.62 1551.61 1343.7 1536C1346.79 1520.39 1354.39 1506.06 1365.56 1494.82L1415.21 1444.73C1430.27 1430.16 1450.39 1422.13 1471.25 1422.36C1492.12 1422.59 1512.06 1431.06 1526.8 1445.96C1541.54 1460.85 1549.9 1480.99 1550.09 1502.03C1550.28 1523.08 1542.28 1543.36 1527.8 1558.52L1478.37 1608.6C1463.36 1623.61 1443.1 1632.06 1421.96 1632.11Z"
              fill="url(#paint5_linear_1896_38138)"/>
        <path d="M951.662 2048.25C964.785 2057.08 980.213 2061.79 995.99 2061.77C1017.07 2061.76 1037.28 2053.3 1052.18 2038.26L1334.2 1754.24C1348.64 1739.05 1356.61 1718.75 1356.38 1697.71C1356.15 1676.66 1347.75 1656.55 1332.98 1641.68C1318.21 1626.81 1298.26 1618.38 1277.39 1618.19C1256.53 1618 1236.42 1626.07 1221.39 1640.67L939.585 1924.48C928.421 1935.72 920.815 1950.06 917.733 1965.66C914.65 1981.27 916.228 1997.45 922.268 2012.15C928.308 2026.85 938.538 2039.41 951.662 2048.25Z"
              fill="url(#paint6_linear_1896_38138)"/>
        <path d="M186.419 1282.25C199.629 1291.25 215.209 1296.04 231.148 1296.02C241.841 1295.88 252.393 1293.55 262.165 1289.17C271.937 1284.79 280.722 1278.45 287.988 1270.54L531.899 1028.91C539.577 1021.55 545.724 1012.72 549.98 1002.93C554.236 993.149 556.516 982.608 556.686 971.925C556.857 961.242 554.915 950.632 550.974 940.715C547.032 930.798 541.17 921.772 533.731 914.167C526.292 906.561 517.424 900.527 507.647 896.417C497.869 892.308 487.377 890.206 476.785 890.233C466.192 890.261 455.711 892.418 445.955 896.578C436.198 900.738 427.362 906.818 419.961 914.462L176.051 1157.41C164.51 1168.5 156.53 1182.83 153.143 1198.54C149.755 1214.25 151.115 1230.62 157.047 1245.54C162.979 1260.47 173.21 1273.25 186.419 1282.25Z"
              fill="url(#paint7_linear_1896_38138)"/>
        <path d="M970.508 1165.98C954.777 1165.89 939.421 1161.12 926.364 1152.27C913.307 1143.42 903.13 1130.88 897.108 1116.23C891.086 1101.57 889.486 1085.44 892.509 1069.87C895.532 1054.3 903.044 1039.97 914.103 1028.69L963.756 978.605C978.814 964.036 998.936 956.003 1019.8 956.233C1040.66 956.462 1060.61 964.934 1075.35 979.83C1090.09 994.727 1098.45 1014.86 1098.64 1035.9C1098.82 1056.95 1090.82 1077.23 1076.35 1092.39L1026.69 1142.25C1019.36 1149.77 1010.61 1155.74 1000.96 1159.81C991.318 1163.88 980.965 1165.98 970.508 1165.98Z"
              fill="url(#paint8_linear_1896_38138)"/>
        <path d="M1264.31 810.611C1277.39 819.433 1292.76 824.155 1308.5 824.181C1318.94 824.224 1329.29 822.167 1338.94 818.132C1348.58 814.096 1357.34 808.162 1364.68 800.677L1557.42 606.274C1571.18 590.984 1578.58 570.938 1578.09 550.293C1577.59 529.648 1569.24 509.985 1554.76 495.383C1540.29 480.78 1520.79 472.356 1500.33 471.858C1479.86 471.36 1459.98 478.826 1444.83 492.707L1252.09 687.11C1241 698.366 1233.46 712.68 1230.42 728.25C1227.38 743.819 1228.98 759.948 1235.01 774.604C1241.04 789.261 1251.24 801.789 1264.31 810.611Z"
              fill="url(#paint9_linear_1896_38138)"/>
        <path d="M440.432 1700.42C424.699 1700.4 409.326 1695.67 396.249 1686.85C383.172 1678.03 372.976 1665.5 366.945 1650.84C360.914 1636.19 359.318 1620.06 362.358 1604.49C365.397 1588.92 372.937 1574.61 384.027 1563.35L769.494 1174.55C784.524 1159.95 804.63 1151.88 825.495 1152.06C846.359 1152.25 866.319 1160.69 881.087 1175.55C895.856 1190.42 904.255 1210.54 904.483 1231.58C904.71 1252.63 896.746 1272.92 882.302 1288.11L496.618 1676.92C489.27 1684.4 480.517 1690.34 470.87 1694.37C461.223 1698.41 450.875 1700.46 440.432 1700.42Z"
              fill="url(#paint10_linear_1896_38138)"/>
        <path d="M1246.43 886.125C1246.43 929.8 1211.33 965.205 1168.03 965.205C1124.73 965.205 1089.63 929.8 1089.63 886.125C1089.63 842.451 1124.73 807.046 1168.03 807.046C1211.33 807.046 1246.43 842.451 1246.43 886.125Z"
              fill="url(#paint11_linear_1896_38138)"/>
        <path d="M561.296 655.918C545.519 655.935 530.092 651.229 516.968 642.396C503.844 633.564 493.615 621.001 487.575 606.299C481.535 591.598 479.956 575.419 483.039 559.812C486.122 544.205 493.727 529.872 504.892 518.628L554.545 468.764C569.703 454.882 589.577 447.417 610.045 447.915C630.513 448.413 650.006 456.836 664.484 471.439C678.961 486.042 687.312 505.704 687.806 526.349C688.3 546.995 680.898 567.04 667.136 582.33L617.482 632.414C602.584 647.453 582.374 655.907 561.296 655.918Z"
              fill="url(#paint12_linear_1896_38138)"/>
        <path d="M35.1309 1128.51C48.2014 1137.4 63.5933 1142.19 79.3597 1142.25C89.8616 1142.21 100.251 1140.07 109.931 1135.96C119.61 1131.85 128.39 1125.85 135.764 1118.31L474.844 776.733C489.317 761.573 497.319 741.293 497.132 720.247C496.945 699.202 488.584 679.069 473.844 664.173C459.104 649.276 439.161 640.804 418.297 640.575C397.432 640.346 377.311 648.378 362.253 662.947L23.6086 1004.74C12.4082 1015.94 4.75034 1030.23 1.60364 1045.81C-1.54306 1061.4 -0.037282 1077.57 5.93063 1092.29C11.8985 1107.01 22.0605 1119.61 35.1309 1128.51Z"
              fill="url(#paint13_linear_1896_38138)"/>
        <path d="M755.344 459.977C744.831 460.054 734.408 458.015 724.685 453.979C714.963 449.943 706.136 443.992 698.722 436.473C683.867 421.373 675.531 400.963 675.531 379.69C675.531 358.417 683.867 338.007 698.722 322.907L843.326 177.049C858.384 162.48 878.506 154.448 899.37 154.677C920.235 154.906 940.178 163.379 954.918 178.275C969.658 193.172 978.019 213.304 978.206 234.35C978.393 255.395 970.39 275.675 955.917 290.836L811.531 436.473C804.168 443.939 795.412 449.86 785.768 453.894C776.125 457.928 765.784 459.996 755.344 459.977Z"
              fill="url(#paint14_linear_1896_38138)"/>
        <path d="M1170.43 1270.32C1154.65 1270.34 1139.22 1265.63 1126.1 1256.8C1112.97 1247.96 1102.74 1235.4 1096.7 1220.7C1090.66 1206 1089.09 1189.82 1092.17 1174.21C1095.25 1158.61 1102.86 1144.27 1114.02 1133.03L1163.67 1083.16C1178.83 1069.28 1198.71 1061.82 1219.17 1062.32C1239.64 1062.81 1259.14 1071.24 1273.61 1085.84C1288.09 1100.44 1296.44 1120.1 1296.94 1140.75C1297.43 1161.4 1290.03 1181.44 1276.27 1196.73L1226.61 1246.81C1211.71 1261.85 1191.5 1270.31 1170.43 1270.32Z"
              fill="url(#paint15_linear_1896_38138)"/>
        <path d="M644.051 1743.44C657.164 1752.42 672.631 1757.25 688.479 1757.31C699.026 1757.18 709.444 1754.94 719.126 1750.72C728.808 1746.49 737.563 1740.37 744.883 1732.71L1083.53 1391.13C1091.18 1383.73 1097.29 1374.87 1101.5 1365.05C1105.71 1355.24 1107.94 1344.68 1108.05 1333.99C1108.17 1323.3 1106.17 1312.69 1102.17 1302.79C1098.17 1292.89 1092.25 1283.89 1084.77 1276.32C1077.28 1268.75 1068.37 1262.77 1058.56 1258.71C1048.75 1254.66 1038.24 1252.62 1027.64 1252.72C1017.04 1252.82 1006.56 1255.04 996.827 1259.27C987.091 1263.5 978.289 1269.65 970.936 1277.35L633.381 1619.15C621.993 1630.26 614.149 1644.55 610.851 1660.18C607.552 1675.82 608.949 1692.09 614.863 1706.92C620.776 1721.75 630.939 1734.47 644.051 1743.44Z"
              fill="url(#paint16_linear_1896_38138)"/>
        <path d="M1364.47 1074.38C1353.99 1074.43 1343.61 1072.37 1333.93 1068.34C1324.24 1064.3 1315.45 1058.37 1308.06 1050.87C1293.21 1035.77 1284.87 1015.36 1284.87 994.091C1284.87 972.818 1293.21 952.408 1308.06 937.308L1452.67 791.451C1467.72 776.881 1487.85 768.849 1508.71 769.078C1529.57 769.307 1549.52 777.78 1564.26 792.676C1579 807.573 1587.36 827.705 1587.55 848.751C1587.73 869.796 1579.73 890.076 1565.26 905.237L1420.87 1050.87C1413.48 1058.37 1404.69 1064.3 1395.01 1068.34C1385.32 1072.37 1374.94 1074.43 1364.47 1074.38Z"
              fill="url(#paint17_linear_1896_38138)"/>
        <path d="M1729.9 704.683C1729.9 748.358 1694.8 783.763 1651.5 783.763C1608.2 783.763 1573.1 748.358 1573.1 704.683C1573.1 661.009 1608.2 625.604 1651.5 625.604C1694.8 625.604 1729.9 661.009 1729.9 704.683Z"
              fill="url(#paint18_linear_1896_38138)"/>
        <path d="M1173.04 1575.43C1157.31 1575.35 1141.95 1570.58 1128.89 1561.73C1115.84 1552.88 1105.66 1540.34 1099.64 1525.68C1093.61 1511.02 1092.01 1494.9 1095.04 1479.32C1098.06 1463.75 1105.57 1449.43 1116.63 1438.14L1357.49 1195.19C1372.52 1180.6 1392.63 1172.52 1413.5 1172.71C1434.36 1172.9 1454.32 1181.33 1469.09 1196.2C1483.86 1211.07 1492.26 1231.19 1492.48 1252.23C1492.71 1273.28 1484.75 1293.57 1470.3 1308.76L1229.44 1551.71C1222.06 1559.23 1213.28 1565.2 1203.6 1569.27C1193.91 1573.35 1183.53 1575.44 1173.04 1575.43Z"
              fill="url(#paint19_linear_1896_38138)"/>
        <path d="M1513.33 1172.53C1526.43 1181.41 1541.85 1186.16 1557.64 1186.19C1578.55 1186.01 1598.57 1177.58 1613.39 1162.68L1857.52 921.492C1872.11 906.422 1880.25 886.18 1880.19 865.117C1880.14 844.055 1871.89 823.855 1857.23 808.861C1842.56 793.867 1822.65 785.277 1801.77 784.938C1780.89 784.599 1760.72 792.538 1745.58 807.047L1501.67 1048.68C1490.46 1059.88 1482.79 1074.2 1479.65 1089.8C1476.51 1105.4 1478.04 1121.6 1484.03 1136.32C1490.03 1151.05 1500.22 1163.65 1513.33 1172.53Z"
              fill="url(#paint20_linear_1896_38138)"/>
        <path d="M980.306 1769.62C964.573 1769.59 949.2 1764.87 936.123 1756.05C923.046 1747.22 912.85 1734.7 906.819 1720.04C900.788 1705.38 899.192 1689.25 902.232 1673.68C905.271 1658.11 912.811 1643.8 923.901 1632.55L972.248 1584C979.501 1575.94 988.301 1569.45 998.115 1564.93C1007.93 1560.4 1018.55 1557.93 1029.34 1557.67C1040.13 1557.41 1050.85 1559.35 1060.87 1563.4C1070.89 1567.44 1079.99 1573.5 1087.62 1581.19C1095.25 1588.89 1101.25 1598.07 1105.26 1608.17C1109.27 1618.28 1111.2 1629.1 1110.94 1639.98C1110.68 1650.86 1108.24 1661.58 1103.75 1671.47C1099.26 1681.37 1092.83 1690.25 1084.84 1697.57L1036.71 1746.11C1029.32 1753.6 1020.53 1759.54 1010.85 1763.58C1001.16 1767.61 990.782 1769.66 980.306 1769.62Z"
              fill="url(#paint21_linear_1896_38138)"/>
        <path d="M918.672 1830.68C918.672 1874.36 883.571 1909.76 840.272 1909.76C796.973 1909.76 761.872 1874.36 761.872 1830.68C761.872 1787.01 796.973 1751.6 840.272 1751.6C883.571 1751.6 918.672 1787.01 918.672 1830.68Z"
              fill="url(#paint22_linear_1896_38138)"/>
        <path d="M818.495 1012.43C802.763 1012.41 787.39 1007.69 774.313 998.863C761.236 990.041 751.039 977.512 745.008 962.856C738.977 948.2 737.381 932.071 740.421 916.501C743.461 900.932 751.001 886.617 762.091 875.362L956.131 679.421C971.09 664.332 991.379 655.855 1012.54 655.855C1033.69 655.855 1053.98 664.332 1068.94 679.421C1083.9 694.51 1092.3 714.975 1092.3 736.314C1092.3 757.653 1083.9 778.119 1068.94 793.208L874.682 988.489C867.37 996.054 858.633 1002.07 848.984 1006.18C839.336 1010.29 828.97 1012.42 818.495 1012.43Z"
              fill="url(#paint23_linear_1896_38138)"/>
        <path d="M1113.18 657.724C1126.26 666.547 1141.63 671.268 1157.36 671.294C1167.88 671.294 1178.3 669.198 1188.02 665.127C1197.73 661.056 1206.56 655.089 1213.98 647.57L1406.06 452.508C1420.48 437.293 1428.41 416.98 1428.15 395.932C1427.88 374.885 1419.44 354.782 1404.64 339.942C1389.84 325.101 1369.86 316.706 1349 316.56C1328.13 316.415 1308.04 324.529 1293.04 339.162L1100.96 534.224C1089.87 545.479 1082.33 559.793 1079.29 575.363C1076.25 590.933 1077.84 607.061 1083.87 621.718C1089.91 636.374 1100.1 648.902 1113.18 657.724Z"
              fill="url(#paint24_linear_1896_38138)"/>
        <path d="M529.292 1304.15C513.534 1304.12 498.136 1299.38 485.046 1290.53C471.956 1281.68 461.76 1269.12 455.747 1254.43C449.734 1239.73 448.174 1223.57 451.263 1207.99C454.353 1192.4 461.954 1178.09 473.105 1166.86L617.492 1021.22C624.83 1013.5 633.62 1007.34 643.348 1003.09C653.076 998.845 663.546 996.597 674.146 996.481C684.745 996.364 695.262 998.382 705.079 1002.41C714.896 1006.45 723.818 1012.42 731.32 1019.97C738.823 1027.52 744.757 1036.51 748.774 1046.4C752.792 1056.3 754.812 1066.9 754.717 1077.59C754.622 1088.29 752.414 1098.85 748.221 1108.67C744.029 1118.49 737.936 1127.37 730.301 1134.79L585.696 1280.64C578.286 1288.11 569.491 1294.02 559.813 1298.06C550.135 1302.09 539.764 1304.16 529.292 1304.15Z"
              fill="url(#paint25_linear_1896_38138)"/>
        <path d="M462.211 1370.49C462.211 1414.16 427.11 1449.56 383.811 1449.56C340.512 1449.56 305.411 1414.16 305.411 1370.49C305.411 1326.81 340.512 1291.41 383.811 1291.41C427.11 1291.41 462.211 1326.81 462.211 1370.49Z"
              fill="url(#paint26_linear_1896_38138)"/>
    </g>
    <defs>
        <linearGradient id="paint0_linear_1896_38138" x1="730" y1="1104" x2="159.5" y2="1674.5"
                        gradientUnits="userSpaceOnUse">
            <stop stop-color="white"/>
            <stop offset="1" stop-color="#105E8B"/>
        </linearGradient>
        <linearGradient id="paint1_linear_1896_38138" x1="730" y1="1104" x2="159.5" y2="1674.5"
                        gradientUnits="userSpaceOnUse">
            <stop stop-color="white"/>
            <stop offset="1" stop-color="#105E8B"/>
        </linearGradient>
        <linearGradient id="paint2_linear_1896_38138" x1="730" y1="1104" x2="159.5" y2="1674.5"
                        gradientUnits="userSpaceOnUse">
            <stop stop-color="white"/>
            <stop offset="1" stop-color="#105E8B"/>
        </linearGradient>
        <linearGradient id="paint3_linear_1896_38138" x1="730" y1="1104" x2="159.5" y2="1674.5"
                        gradientUnits="userSpaceOnUse">
            <stop stop-color="white"/>
            <stop offset="1" stop-color="#105E8B"/>
        </linearGradient>
        <linearGradient id="paint4_linear_1896_38138" x1="730" y1="1104" x2="159.5" y2="1674.5"
                        gradientUnits="userSpaceOnUse">
            <stop stop-color="white"/>
            <stop offset="1" stop-color="#105E8B"/>
        </linearGradient>
        <linearGradient id="paint5_linear_1896_38138" x1="730" y1="1104" x2="159.5" y2="1674.5"
                        gradientUnits="userSpaceOnUse">
            <stop stop-color="white"/>
            <stop offset="1" stop-color="#105E8B"/>
        </linearGradient>
        <linearGradient id="paint6_linear_1896_38138" x1="730" y1="1104" x2="159.5" y2="1674.5"
                        gradientUnits="userSpaceOnUse">
            <stop stop-color="white"/>
            <stop offset="1" stop-color="#105E8B"/>
        </linearGradient>
        <linearGradient id="paint7_linear_1896_38138" x1="730" y1="1104" x2="159.5" y2="1674.5"
                        gradientUnits="userSpaceOnUse">
            <stop stop-color="white"/>
            <stop offset="1" stop-color="#105E8B"/>
        </linearGradient>
        <linearGradient id="paint8_linear_1896_38138" x1="730" y1="1104" x2="159.5" y2="1674.5"
                        gradientUnits="userSpaceOnUse">
            <stop stop-color="white"/>
            <stop offset="1" stop-color="#105E8B"/>
        </linearGradient>
        <linearGradient id="paint9_linear_1896_38138" x1="730" y1="1104" x2="159.5" y2="1674.5"
                        gradientUnits="userSpaceOnUse">
            <stop stop-color="white"/>
            <stop offset="1" stop-color="#105E8B"/>
        </linearGradient>
        <linearGradient id="paint10_linear_1896_38138" x1="730" y1="1104" x2="159.5" y2="1674.5"
                        gradientUnits="userSpaceOnUse">
            <stop stop-color="white"/>
            <stop offset="1" stop-color="#105E8B"/>
        </linearGradient>
        <linearGradient id="paint11_linear_1896_38138" x1="730" y1="1104" x2="159.5" y2="1674.5"
                        gradientUnits="userSpaceOnUse">
            <stop stop-color="white"/>
            <stop offset="1" stop-color="#105E8B"/>
        </linearGradient>
        <linearGradient id="paint12_linear_1896_38138" x1="730" y1="1104" x2="159.5" y2="1674.5"
                        gradientUnits="userSpaceOnUse">
            <stop stop-color="white"/>
            <stop offset="1" stop-color="#105E8B"/>
        </linearGradient>
        <linearGradient id="paint13_linear_1896_38138" x1="730" y1="1104" x2="159.5" y2="1674.5"
                        gradientUnits="userSpaceOnUse">
            <stop stop-color="white"/>
            <stop offset="1" stop-color="#105E8B"/>
        </linearGradient>
        <linearGradient id="paint14_linear_1896_38138" x1="730" y1="1104" x2="159.5" y2="1674.5"
                        gradientUnits="userSpaceOnUse">
            <stop stop-color="white"/>
            <stop offset="1" stop-color="#105E8B"/>
        </linearGradient>
        <linearGradient id="paint15_linear_1896_38138" x1="730" y1="1104" x2="159.5" y2="1674.5"
                        gradientUnits="userSpaceOnUse">
            <stop stop-color="white"/>
            <stop offset="1" stop-color="#105E8B"/>
        </linearGradient>
        <linearGradient id="paint16_linear_1896_38138" x1="730" y1="1104" x2="159.5" y2="1674.5"
                        gradientUnits="userSpaceOnUse">
            <stop stop-color="white"/>
            <stop offset="1" stop-color="#105E8B"/>
        </linearGradient>
        <linearGradient id="paint17_linear_1896_38138" x1="730" y1="1104" x2="159.5" y2="1674.5"
                        gradientUnits="userSpaceOnUse">
            <stop stop-color="white"/>
            <stop offset="1" stop-color="#105E8B"/>
        </linearGradient>
        <linearGradient id="paint18_linear_1896_38138" x1="730" y1="1104" x2="159.5" y2="1674.5"
                        gradientUnits="userSpaceOnUse">
            <stop stop-color="white"/>
            <stop offset="1" stop-color="#105E8B"/>
        </linearGradient>
        <linearGradient id="paint19_linear_1896_38138" x1="730" y1="1104" x2="159.5" y2="1674.5"
                        gradientUnits="userSpaceOnUse">
            <stop stop-color="white"/>
            <stop offset="1" stop-color="#105E8B"/>
        </linearGradient>
        <linearGradient id="paint20_linear_1896_38138" x1="730" y1="1104" x2="159.5" y2="1674.5"
                        gradientUnits="userSpaceOnUse">
            <stop stop-color="white"/>
            <stop offset="1" stop-color="#105E8B"/>
        </linearGradient>
        <linearGradient id="paint21_linear_1896_38138" x1="730" y1="1104" x2="159.5" y2="1674.5"
                        gradientUnits="userSpaceOnUse">
            <stop stop-color="white"/>
            <stop offset="1" stop-color="#105E8B"/>
        </linearGradient>
        <linearGradient id="paint22_linear_1896_38138" x1="730" y1="1104" x2="159.5" y2="1674.5"
                        gradientUnits="userSpaceOnUse">
            <stop stop-color="white"/>
            <stop offset="1" stop-color="#105E8B"/>
        </linearGradient>
        <linearGradient id="paint23_linear_1896_38138" x1="730" y1="1104" x2="159.5" y2="1674.5"
                        gradientUnits="userSpaceOnUse">
            <stop stop-color="white"/>
            <stop offset="1" stop-color="#105E8B"/>
        </linearGradient>
        <linearGradient id="paint24_linear_1896_38138" x1="730" y1="1104" x2="159.5" y2="1674.5"
                        gradientUnits="userSpaceOnUse">
            <stop stop-color="white"/>
            <stop offset="1" stop-color="#105E8B"/>
        </linearGradient>
        <linearGradient id="paint25_linear_1896_38138" x1="730" y1="1104" x2="159.5" y2="1674.5"
                        gradientUnits="userSpaceOnUse">
            <stop stop-color="white"/>
            <stop offset="1" stop-color="#105E8B"/>
        </linearGradient>
        <linearGradient id="paint26_linear_1896_38138" x1="730" y1="1104" x2="159.5" y2="1674.5"
                        gradientUnits="userSpaceOnUse">
            <stop stop-color="white"/>
            <stop offset="1" stop-color="#105E8B"/>
        </linearGradient>
    </defs>
</svg>
