<svg width="600" height="1024" viewBox="0 0 600 1024" fill="none" xmlns="http://www.w3.org/2000/svg">
<g clip-path="url(#clip0_82_2033)">
<rect width="600" height="1024" fill="#D5E7E8"/>
<circle cx="530.767" cy="858.767" r="414.051" transform="rotate(-18.0068 530.767 858.767)" fill="white" fill-opacity="0.5"/>
<circle cx="122.638" cy="80.6378" r="140.966" transform="rotate(-18.0068 122.638 80.6378)" fill="white" fill-opacity="0.5"/>
<path d="M301.048 744.304C231.518 782.783 143.691 757.13 105.877 687.503C67.4526 617.875 93.0688 529.924 162.598 492.056C232.128 453.578 319.955 479.23 357.77 548.858C395.584 618.486 371.188 706.436 301.048 744.304Z" fill="#23428E"/>
<path d="M212.61 375.399C171.746 397.998 121.123 382.728 98.5568 341.807C75.9902 301.496 91.2379 250.191 131.492 228.204C172.356 205.605 222.978 220.874 245.545 261.796C268.112 302.718 252.864 352.801 212.61 375.399Z" fill="#FAAA3E"/>
<path d="M541.352 891.502C523.055 901.274 500.488 894.556 490.73 876.844C480.971 858.52 487.68 835.922 505.368 826.15C523.665 816.377 546.232 823.096 555.99 840.808C565.749 859.131 559.04 881.73 541.352 891.502Z" fill="#23428E"/>
<path d="M432.787 882.34C404.731 897.61 368.746 887.227 353.499 859.131C338.251 831.036 348.619 795 376.675 779.731C404.731 764.462 440.716 774.845 455.963 802.94C471.211 831.646 460.843 867.071 432.787 882.34Z" fill="#B9E2E3"/>
<path d="M538.303 210.493C497.439 233.092 445.596 217.822 423.03 176.901C400.463 135.979 415.711 84.0636 456.575 61.4651C497.439 38.8666 549.281 54.1359 571.848 95.0575C594.414 136.59 579.167 187.895 538.303 210.493Z" fill="#B9E2E3"/>
<path d="M307.148 201.334C290.68 210.495 269.333 204.388 260.185 187.897C251.036 171.406 257.135 150.029 273.603 140.867C290.07 131.706 311.417 137.814 320.566 154.304C329.714 170.795 323.615 191.561 307.148 201.334Z" fill="#23428E"/>
</g>
<defs>
<clipPath id="clip0_82_2033">
<rect width="600" height="1024" fill="white"/>
</clipPath>
</defs>
</svg>
