<svg width="1180" height="1024" viewBox="0 0 1180 1024" fill="none" xmlns="http://www.w3.org/2000/svg">
<g clip-path="url(#clip0_139_10091)">
<circle cx="585.767" cy="858.767" r="414.051" transform="rotate(-18.0068 585.767 858.767)" fill="white" fill-opacity="0.5"/>
<circle cx="109.638" cy="80.6378" r="140.966" transform="rotate(-18.0068 109.638 80.6378)" fill="white" fill-opacity="0.5"/>
<path d="M356.048 744.304C286.518 782.783 198.691 757.13 160.877 687.503C122.453 617.875 148.069 529.924 217.598 492.056C287.128 453.578 374.955 479.23 412.77 548.858C450.584 618.486 426.188 706.436 356.048 744.304Z" fill="#23428E" fill-opacity="0.05"/>
<path d="M267.61 375.399C226.746 397.998 176.123 382.728 153.557 341.807C130.99 301.496 146.238 250.191 186.492 228.204C227.356 205.605 277.978 220.874 300.545 261.796C323.112 302.718 307.864 352.801 267.61 375.399Z" fill="#FAAA3E" fill-opacity="0.1"/>
<path d="M933.022 745.529C901.917 762.631 862.272 751.026 845.195 719.877C828.117 688.727 839.706 649.027 870.811 631.926C901.917 614.824 941.561 626.429 958.638 657.578C975.716 688.727 964.737 728.428 933.022 745.529Z" fill="#FAAA3E" fill-opacity="0.1"/>
<path d="M1002.55 518.932C990.963 525.04 976.326 520.764 969.617 509.16C963.518 497.555 967.787 482.897 979.375 476.178C990.964 470.07 1005.6 474.346 1012.31 485.95C1018.41 498.166 1014.14 512.824 1002.55 518.932Z" fill="#FAAA3E" fill-opacity="0.1"/>
<path d="M780.545 868.902C764.687 877.453 744.56 871.956 736.022 856.076C727.483 840.196 732.972 820.041 748.83 811.49C764.687 802.939 784.814 808.436 793.353 824.316C801.892 840.196 796.403 860.351 780.545 868.902Z" fill="#B9E2E3" fill-opacity="0.1"/>
<path d="M988.525 431.591C952.541 451.136 907.407 438.31 887.28 402.274C867.763 366.239 880.571 321.042 916.556 300.886C952.541 281.342 997.674 294.168 1017.8 330.203C1037.32 366.85 1024.51 412.047 988.525 431.591Z" fill="#23428E" fill-opacity="0.05"/>
<path d="M596.352 891.502C578.055 901.274 555.488 894.556 545.73 876.844C535.971 858.52 542.68 835.922 560.368 826.15C578.665 816.377 601.232 823.096 610.99 840.808C620.749 859.131 614.04 881.73 596.352 891.502Z" fill="#23428E" fill-opacity="0.05"/>
<path d="M819.579 254.47C779.325 276.458 728.703 261.799 706.746 221.489C684.789 181.178 699.427 130.484 739.681 108.496C779.935 86.5084 830.558 101.167 852.515 141.478C875.081 181.789 859.833 232.482 819.579 254.47Z" fill="#23428E" fill-opacity="0.05"/>
<path d="M487.787 882.34C459.731 897.61 423.746 887.227 408.499 859.131C393.251 831.036 403.619 795 431.675 779.731C459.731 764.462 495.716 774.845 510.963 802.94C526.211 831.646 515.843 867.071 487.787 882.34Z" fill="#B9E2E3" fill-opacity="0.1"/>
<path d="M593.303 210.493C552.439 233.092 500.596 217.822 478.03 176.901C455.463 135.979 470.711 84.0636 511.575 61.4651C552.439 38.8666 604.281 54.1359 626.848 95.0575C649.414 136.59 634.167 187.895 593.303 210.493Z" fill="#B9E2E3" fill-opacity="0.1"/>
<path d="M800.062 403.498C779.325 414.492 753.709 407.162 742.73 386.396C731.752 365.63 739.071 339.978 759.198 328.984C779.935 317.99 805.551 325.319 816.529 346.085C828.118 366.241 820.799 392.504 800.062 403.498Z" fill="#23428E" fill-opacity="0.05"/>
<path d="M362.148 201.334C345.68 210.495 324.333 204.388 315.185 187.897C306.036 171.406 312.135 150.029 328.603 140.867C345.07 131.706 366.417 137.814 375.566 154.304C384.714 170.795 378.615 191.561 362.148 201.334Z" fill="#23428E" fill-opacity="0.05"/>
</g>
<defs>
<clipPath id="clip0_139_10091">
<rect width="1180" height="1024" fill="white"/>
</clipPath>
</defs>
</svg>
