<svg width="103" height="41" viewBox="0 0 103 41" fill="none" xmlns="http://www.w3.org/2000/svg">
<path d="M10.0993 33.3194C6.80335 35.1409 2.63999 33.9266 0.847437 30.6306C-0.974032 27.3346 0.24028 23.1712 3.53627 21.3787C6.83226 19.5572 10.9956 20.7715 12.7882 24.0675C14.5807 27.3635 13.4242 31.5269 10.0993 33.3194Z" fill="#23428E"/>
<path d="M5.90678 15.8558C3.96966 16.9256 1.56995 16.2028 0.500199 14.2656C-0.569552 12.3574 0.153253 9.92881 2.06146 8.88797C3.99858 7.81822 6.39829 8.54102 7.46804 10.4781C8.53779 12.4153 7.81499 14.7861 5.90678 15.8558Z" fill="#FAAA3E"/>
<path d="M37.45 33.3767C35.9755 34.1863 34.0962 33.637 33.2867 32.1624C32.4771 30.6879 33.0265 28.8086 34.501 27.9991C35.9755 27.1895 37.8548 27.7389 38.6643 29.2134C39.4739 30.6879 38.9535 32.5672 37.45 33.3767Z" fill="#FAAA3E"/>
<path d="M40.7465 22.6505C40.1971 22.9396 39.5032 22.7372 39.1852 22.1879C38.8961 21.6385 39.0985 20.9446 39.6478 20.6266C40.1971 20.3375 40.891 20.5399 41.2091 21.0892C41.4982 21.6674 41.2958 22.3613 40.7465 22.6505Z" fill="#FAAA3E"/>
<path d="M30.2225 39.2173C29.4707 39.6221 28.5166 39.3619 28.1119 38.6102C27.7071 37.8584 27.9673 36.9043 28.719 36.4996C29.4707 36.0948 30.4248 36.355 30.8296 37.1067C31.2344 37.8584 30.9742 38.8125 30.2225 39.2173Z" fill="#B9E2E3"/>
<path d="M40.0812 18.5164C38.3754 19.4416 36.2359 18.8344 35.2818 17.1286C34.3566 15.4228 34.9638 13.2833 36.6696 12.3292C38.3754 11.404 40.5149 12.0111 41.469 13.717C42.3942 15.4517 41.7871 17.5912 40.0812 18.5164Z" fill="#23428E"/>
<path d="M21.4906 40.287C20.6232 40.7496 19.5534 40.4316 19.0909 39.5931C18.6283 38.7257 18.9463 37.656 19.7847 37.1934C20.6521 36.7308 21.7219 37.0488 22.1845 37.8873C22.6471 38.7547 22.329 39.8244 21.4906 40.287Z" fill="#23428E"/>
<path d="M32.0725 10.1318C30.1643 11.1726 27.7645 10.4787 26.7237 8.57051C25.6829 6.66231 26.3768 4.26259 28.285 3.22175C30.1932 2.18091 32.5929 2.87481 33.6337 4.78301C34.7035 6.69122 33.9807 9.09093 32.0725 10.1318Z" fill="#23428E"/>
<path d="M16.3444 39.8537C15.0144 40.5765 13.3086 40.085 12.5858 38.755C11.863 37.4251 12.3545 35.7192 13.6844 34.9964C15.0144 34.2736 16.7202 34.7651 17.443 36.0951C18.1658 37.454 17.6743 39.1309 16.3444 39.8537Z" fill="#B9E2E3"/>
<path d="M21.346 8.04997C19.4089 9.11972 16.9514 8.39691 15.8816 6.4598C14.8119 4.52268 15.5347 2.06514 17.4718 0.995392C19.4089 -0.0743598 21.8664 0.648445 22.9362 2.58556C24.0059 4.55159 23.2831 6.98022 21.346 8.04997Z" fill="#B9E2E3"/>
<path d="M31.1475 17.1861C30.1645 17.7065 28.9501 17.3596 28.4297 16.3766C27.9093 15.3935 28.2563 14.1792 29.2104 13.6588C30.1934 13.1384 31.4077 13.4853 31.9281 14.4684C32.4774 15.4225 32.1305 16.6657 31.1475 17.1861Z" fill="#23428E"/>
<path d="M10.3886 7.61597C9.60796 8.04965 8.59603 7.76053 8.16235 6.9799C7.72867 6.19927 8.01779 5.18734 8.79842 4.75366C9.57905 4.31998 10.591 4.6091 11.0247 5.38973C11.4583 6.17036 11.1692 7.15337 10.3886 7.61597Z" fill="#23428E"/>
<path d="M57.0952 25.1952C57.5524 25.1952 57.9333 25.119 58.2762 24.9666C58.619 24.8142 58.9238 24.6238 59.1524 24.3571C59.381 24.0904 59.5714 23.7476 59.6857 23.3666C59.8 22.9857 59.8762 22.5285 59.8762 22.0333V13.6523H63.1524V22.0333C63.1524 22.9095 63 23.7095 62.7333 24.4333C62.4667 25.1571 62.0476 25.7666 61.5143 26.3C60.981 26.8333 60.3714 27.2142 59.6095 27.519C58.8476 27.8238 58.0095 27.9381 57.0952 27.9381C56.1429 27.9381 55.3048 27.7857 54.5429 27.519C53.781 27.2142 53.1714 26.8333 52.6381 26.3C52.1048 25.7666 51.7238 25.1571 51.419 24.4333C51.1524 23.7095 51 22.9095 51 22.0333V13.6523H54.2762V22.0333C54.2762 22.5285 54.3524 22.9857 54.4667 23.3666C54.581 23.7476 54.7714 24.0904 55 24.3571C55.2286 24.6238 55.5333 24.8523 55.8762 25.0047C56.2571 25.119 56.6381 25.1952 57.0952 25.1952Z" fill="#23428E"/>
<path d="M65.2856 27.7857V17.7286H67.1523C67.3428 17.7286 67.4952 17.7666 67.6095 17.8428C67.7237 17.919 67.838 18.0714 67.8761 18.2238L68.0666 18.7952C68.2571 18.6047 68.4475 18.4524 68.6761 18.3C68.8666 18.1476 69.0952 17.9952 69.3237 17.919C69.5523 17.8047 69.819 17.7286 70.0856 17.6524C70.3523 17.5762 70.6571 17.5762 70.9999 17.5762C71.5333 17.5762 72.0285 17.6905 72.4475 17.8809C72.8666 18.0714 73.2475 18.3381 73.5142 18.6809C73.819 19.0238 74.0095 19.4428 74.1618 19.9C74.3142 20.3571 74.3904 20.8905 74.3904 21.4238V27.8238H71.419V21.4238C71.419 20.9285 71.3047 20.5476 71.0761 20.2809C70.8475 20.0143 70.5047 19.8619 70.0856 19.8619C69.7428 19.8619 69.438 19.9381 69.1714 20.0905C68.8666 20.2428 68.5999 20.4333 68.3333 20.6619V27.8238H65.2856" fill="#23428E"/>
<path d="M80.181 13.6523H76.8667V27.7857H80.181V13.6523Z" fill="#23428E"/>
<path d="M92.2955 24.1286C92.3717 24.1286 92.4479 24.1286 92.5241 24.1667C92.6003 24.2048 92.6764 24.2429 92.7526 24.3191L94.0479 25.6905C93.4764 26.4524 92.7526 26.9857 91.9145 27.3667C91.0383 27.7476 90.0479 27.9381 88.8669 27.9381C87.8003 27.9381 86.8479 27.7476 85.9717 27.4048C85.1336 27.0238 84.4098 26.5286 83.8003 25.881C83.1907 25.2333 82.7717 24.4714 82.4288 23.5952C82.1241 22.719 81.9717 21.7667 81.9717 20.7C81.9717 19.6333 82.1622 18.681 82.505 17.8048C82.8479 16.9286 83.3812 16.1667 84.0288 15.519C84.6764 14.8714 85.4383 14.3762 86.3526 14.0333C87.2669 13.6905 88.2574 13.5 89.3622 13.5C89.8955 13.5 90.3907 13.5381 90.8479 13.6524C91.305 13.7286 91.7622 13.881 92.1812 14.0333C92.6003 14.1857 92.9812 14.4143 93.3241 14.6429C93.6669 14.8714 93.9717 15.1381 94.2383 15.4048L93.1336 16.8905C93.0574 16.9667 92.9812 17.081 92.8669 17.119C92.7526 17.1952 92.6383 17.2333 92.4479 17.2333C92.3336 17.2333 92.2193 17.1952 92.105 17.1571C91.9907 17.1191 91.8764 17.0429 91.7622 16.9667C91.6479 16.8905 91.5336 16.8143 91.3812 16.7381C91.2288 16.6619 91.0764 16.5857 90.886 16.5095C90.6955 16.4333 90.4669 16.3571 90.2003 16.3191C89.9336 16.281 89.6288 16.2429 89.286 16.2429C88.6764 16.2429 88.1431 16.3571 87.6479 16.5476C87.1526 16.7762 86.7336 17.0429 86.3907 17.4619C86.0479 17.8429 85.7812 18.3381 85.5526 18.8714C85.3622 19.4429 85.2479 20.0524 85.2479 20.7381C85.2479 21.4619 85.3622 22.1095 85.5526 22.681C85.7431 23.2524 86.0098 23.7095 86.3526 24.0905C86.6955 24.4714 87.0764 24.7762 87.5336 24.9667C87.9907 25.1571 88.486 25.2714 88.9812 25.2714C89.286 25.2714 89.5526 25.2714 89.7812 25.2333C90.0098 25.1952 90.2383 25.1571 90.4669 25.081C90.6955 25.0048 90.886 24.9286 91.0764 24.8143C91.2669 24.7 91.4574 24.5476 91.6479 24.3952C91.7241 24.319 91.8003 24.281 91.9145 24.2429C92.105 24.1667 92.1812 24.1286 92.2955 24.1286Z" fill="#23428E"/>
</svg>
