<svg width="286" height="120" viewBox="0 0 286 120" fill="none" xmlns="http://www.w3.org/2000/svg">
<path d="M30.798 98.4573C20.9101 103.922 8.41998 100.279 3.04231 90.3908C-2.4221 80.5028 1.22084 68.0128 11.1088 62.6351C20.9968 57.1707 33.4869 60.8136 38.8645 70.7016C44.2422 80.5896 40.7727 93.0796 30.798 98.4573Z" fill="white"/>
<path d="M18.2213 46.0684C12.41 49.2777 5.21083 47.1092 2.00157 41.2979C-1.20768 35.5733 0.960736 28.2874 6.68535 25.1649C12.4967 21.9556 19.6958 24.124 22.9051 29.9354C26.1143 35.7467 23.9459 42.8591 18.2213 46.0684Z" fill="#FAAA3E"/>
<path d="M112.851 98.6312C108.427 101.06 102.789 99.4118 100.361 94.9883C97.9319 90.5647 99.5799 84.9268 104.003 82.4982C108.427 80.0696 114.065 81.7176 116.494 86.1411C118.922 90.5647 117.361 96.2026 112.851 98.6312Z" fill="#FAAA3E"/>
<path d="M122.738 66.4514C121.09 67.3188 119.009 66.7116 118.055 65.0636C117.187 63.4156 117.794 61.3339 119.442 60.3798C121.09 59.5125 123.172 60.1196 124.126 61.7676C124.994 63.5023 124.386 65.584 122.738 66.4514Z" fill="#FAAA3E"/>
<path d="M91.1664 116.152C88.9113 117.366 86.0489 116.586 84.8346 114.33C83.6203 112.075 84.401 109.213 86.6561 107.999C88.9113 106.784 91.7736 107.565 92.9879 109.82C94.2022 112.075 93.4216 114.938 91.1664 116.152Z" fill="#B9E2E3"/>
<path d="M120.744 54.0482C115.627 56.8238 109.208 55.0023 106.346 49.8848C103.57 44.7674 105.392 38.3489 110.509 35.4866C115.627 32.711 122.045 34.5325 124.908 39.6499C127.683 44.8541 125.862 51.2726 120.744 54.0482Z" fill="white"/>
<path d="M64.9727 119.361C62.3706 120.749 59.1613 119.795 57.7735 117.279C56.3858 114.677 57.3399 111.468 59.8552 110.08C62.4573 108.692 65.6666 109.646 67.0544 112.162C68.4421 114.764 67.488 117.973 64.9727 119.361Z" fill="white"/>
<path d="M96.7174 28.8953C90.9928 32.0178 83.7936 29.9361 80.6711 24.2115C77.5486 18.4869 79.6303 11.2878 85.3549 8.16526C91.0795 5.04275 98.2787 7.12442 101.401 12.849C104.61 18.5737 102.442 25.7728 96.7174 28.8953Z" fill="white"/>
<path d="M49.5326 118.06C45.5427 120.228 40.4253 118.754 38.2569 114.764C36.0885 110.774 37.563 105.657 41.5529 103.488C45.5427 101.32 50.6602 102.794 52.8286 106.784C54.997 110.861 53.5225 115.892 49.5326 118.06Z" fill="#B9E2E3"/>
<path d="M64.5386 22.6499C58.7272 25.8592 51.3546 23.6907 48.1454 17.8794C44.9361 12.068 47.1045 4.69543 52.9159 1.48617C58.7272 -1.72308 66.0998 0.445336 69.3091 6.25669C72.5183 12.1548 70.3499 19.4406 64.5386 22.6499Z" fill="#B9E2E3"/>
<path d="M93.9419 50.0593C90.9929 51.6205 87.3499 50.5797 85.7887 47.6306C84.2274 44.6816 85.2683 41.0387 88.1306 39.4774C91.0796 37.9161 94.7226 38.957 96.2838 41.906C97.9318 44.7683 96.891 48.498 93.9419 50.0593Z" fill="white"/>
<path d="M31.6653 21.3489C29.3234 22.6499 26.2876 21.7826 24.9866 19.4407C23.6855 17.0988 24.5529 14.063 26.8948 12.762C29.2367 11.4609 32.2724 12.3283 33.5735 14.6702C34.8745 17.012 34.0072 19.9611 31.6653 21.3489Z" fill="white"/>
<path d="M171.786 74.0856C173.157 74.0856 174.3 73.857 175.329 73.3999C176.357 72.9427 177.271 72.3713 177.957 71.5713C178.643 70.7713 179.214 69.7427 179.557 68.5999C179.9 67.457 180.129 66.0856 180.129 64.5999V39.457H189.957V64.5999C189.957 67.2285 189.5 69.6285 188.7 71.7999C187.9 73.9713 186.643 75.7999 185.043 77.3999C183.443 78.9999 181.614 80.1427 179.329 81.057C177.043 81.9713 174.529 82.3142 171.786 82.3142C168.929 82.3142 166.414 81.857 164.129 81.057C161.843 80.1427 160.014 78.9999 158.414 77.3999C156.814 75.7999 155.671 73.9713 154.757 71.7999C153.957 69.6285 153.5 67.2285 153.5 64.5999V39.457H163.329V64.5999C163.329 66.0856 163.557 67.457 163.9 68.5999C164.243 69.7427 164.814 70.7713 165.5 71.5713C166.186 72.3713 167.1 73.057 168.129 73.5142C169.271 73.857 170.414 74.0856 171.786 74.0856Z" fill="white"/>
<path d="M196.357 81.8571V51.6857H201.957C202.529 51.6857 202.986 51.7999 203.329 52.0285C203.672 52.2571 204.015 52.7142 204.129 53.1714L204.7 54.8857C205.272 54.3142 205.843 53.8571 206.529 53.3999C207.1 52.9428 207.786 52.4857 208.472 52.2571C209.157 51.9142 209.957 51.6857 210.757 51.4571C211.557 51.2285 212.472 51.2285 213.5 51.2285C215.1 51.2285 216.586 51.5714 217.843 52.1428C219.1 52.7142 220.243 53.5142 221.043 54.5428C221.957 55.5714 222.529 56.8285 222.986 58.1999C223.443 59.5714 223.672 61.1714 223.672 62.7714V81.9714H214.757V62.7714C214.757 61.2856 214.415 60.1428 213.729 59.3428C213.043 58.5428 212.015 58.0857 210.757 58.0857C209.729 58.0857 208.815 58.3142 208.015 58.7714C207.1 59.2285 206.3 59.7999 205.5 60.4856V81.9714H196.357" fill="white"/>
<path d="M241.042 39.457H231.1V81.857H241.042V39.457Z" fill="white"/>
<path d="M277.386 70.8857C277.614 70.8857 277.843 70.8857 278.071 71C278.3 71.1143 278.528 71.2286 278.757 71.4572L282.643 75.5714C280.928 77.8571 278.757 79.4572 276.243 80.6C273.614 81.7429 270.643 82.3143 267.1 82.3143C263.9 82.3143 261.043 81.7429 258.414 80.7143C255.9 79.5714 253.728 78.0857 251.9 76.1429C250.071 74.2 248.814 71.9143 247.785 69.2857C246.871 66.6571 246.414 63.8 246.414 60.6C246.414 57.4 246.985 54.5429 248.014 51.9143C249.043 49.2857 250.643 47 252.585 45.0571C254.528 43.1143 256.814 41.6286 259.557 40.6C262.3 39.5714 265.271 39 268.585 39C270.185 39 271.671 39.1143 273.043 39.4572C274.414 39.6857 275.785 40.1429 277.043 40.6C278.3 41.0572 279.443 41.7429 280.471 42.4286C281.5 43.1143 282.414 43.9143 283.214 44.7143L279.9 49.1714C279.671 49.4 279.443 49.7429 279.1 49.8571C278.757 50.0857 278.414 50.2 277.843 50.2C277.5 50.2 277.157 50.0857 276.814 49.9714C276.471 49.8572 276.128 49.6286 275.786 49.4C275.443 49.1714 275.1 48.9429 274.643 48.7143C274.186 48.4857 273.728 48.2572 273.157 48.0286C272.585 47.8 271.9 47.5714 271.1 47.4572C270.3 47.3429 269.385 47.2286 268.357 47.2286C266.528 47.2286 264.928 47.5714 263.443 48.1429C261.957 48.8286 260.7 49.6286 259.671 50.8857C258.643 52.0286 257.843 53.5143 257.157 55.1143C256.585 56.8286 256.243 58.6571 256.243 60.7143C256.243 62.8857 256.585 64.8286 257.157 66.5429C257.728 68.2572 258.528 69.6286 259.557 70.7714C260.585 71.9143 261.728 72.8286 263.1 73.4C264.471 73.9714 265.957 74.3143 267.443 74.3143C268.357 74.3143 269.157 74.3143 269.843 74.2C270.528 74.0857 271.214 73.9714 271.9 73.7429C272.585 73.5143 273.157 73.2857 273.728 72.9429C274.3 72.6 274.871 72.1429 275.443 71.6857C275.671 71.4571 275.9 71.3429 276.243 71.2286C276.814 71 277.043 70.8857 277.386 70.8857Z" fill="white"/>
</svg>
