<svg width="286" height="120" viewBox="0 0 286 120" fill="none" xmlns="http://www.w3.org/2000/svg">
<path d="M30.798 98.4028C20.9101 103.859 8.41998 100.222 3.04231 90.3477C-2.4221 80.4738 1.22084 68.0015 11.1088 62.6315C20.9968 57.1748 33.4869 60.8126 38.8645 70.6865C44.2422 80.5604 40.7727 93.0328 30.798 98.4028Z" fill="#23428E"/>
<path d="M18.2211 46.0883C12.4097 49.293 5.21059 47.1277 2.00133 41.3246C-1.20792 35.6081 0.960492 28.3326 6.68511 25.2145C12.4965 22.0098 19.6956 24.1751 22.9049 29.9782C26.1141 35.7813 23.9457 42.8836 18.2211 46.0883Z" fill="#FAAA3E"/>
<path d="M112.851 98.5765C108.427 101.002 102.789 99.356 100.361 94.9387C97.9321 90.5214 99.5801 84.8916 104.004 82.4664C108.427 80.0412 114.065 81.6869 116.494 86.1042C118.922 90.5215 117.361 96.1513 112.851 98.5765Z" fill="#FAAA3E"/>
<path d="M122.739 66.4427C121.091 67.3089 119.009 66.7026 118.055 65.0569C117.188 63.4113 117.795 61.3325 119.443 60.3798C121.091 59.5136 123.172 60.1199 124.127 61.7656C124.994 63.4979 124.387 65.5766 122.739 66.4427Z" fill="#FAAA3E"/>
<path d="M91.1667 116.072C88.9116 117.285 86.0492 116.505 84.8349 114.253C83.6206 112.001 84.4013 109.143 86.6564 107.93C88.9116 106.718 91.7739 107.497 92.9882 109.749C94.2025 112.001 93.4219 114.859 91.1667 116.072Z" fill="#B9E2E3"/>
<path d="M120.744 54.0569C115.627 56.8285 109.208 55.0097 106.346 49.8995C103.57 44.7893 105.392 38.3799 110.509 35.5217C115.627 32.75 122.045 34.5689 124.907 39.6791C127.683 44.8759 125.862 51.2853 120.744 54.0569Z" fill="#23428E"/>
<path d="M64.9723 119.277C62.3702 120.663 59.1609 119.71 57.7731 117.198C56.3853 114.6 57.3394 111.395 59.8548 110.009C62.4569 108.623 65.6661 109.576 67.0539 112.088C68.4417 114.686 67.4876 117.891 64.9723 119.277Z" fill="#23428E"/>
<path d="M96.7178 28.9394C90.9932 32.0574 83.7941 29.9787 80.6715 24.2622C77.549 18.5457 79.6307 11.3568 85.3553 8.23875C91.0799 5.12067 98.2791 7.19939 101.402 12.9159C104.611 18.6324 102.442 25.8213 96.7178 28.9394Z" fill="#23428E"/>
<path d="M49.5329 117.978C45.543 120.143 40.4256 118.671 38.2572 114.686C36.0888 110.702 37.5633 105.592 41.5532 103.427C45.543 101.261 50.6605 102.734 52.8289 106.718C54.9973 110.789 53.5228 115.812 49.5329 117.978Z" fill="#B9E2E3"/>
<path d="M64.5385 22.703C58.7272 25.9077 51.3545 23.7423 48.1453 17.9392C44.936 12.1361 47.1045 4.77399 52.9158 1.5693C58.7272 -1.6354 66.0998 0.529939 69.309 6.33304C72.5183 12.2227 70.3499 19.4983 64.5385 22.703Z" fill="#B9E2E3"/>
<path d="M93.9422 50.073C90.9932 51.632 87.3503 50.5927 85.789 47.6478C84.2277 44.703 85.2686 41.0652 88.1309 39.5062C91.0799 37.9471 94.7229 38.9865 96.2841 41.9313C97.9321 44.7896 96.8913 48.5139 93.9422 50.073Z" fill="#23428E"/>
<path d="M31.6655 21.4041C29.3236 22.7033 26.2878 21.8371 24.9867 19.4986C23.6857 17.16 24.5531 14.1285 26.8949 12.8293C29.2368 11.5301 32.2726 12.3963 33.5737 14.7348C34.8747 17.0734 34.0074 20.0183 31.6655 21.4041Z" fill="#23428E"/>
<path d="M171.786 74.0657C173.157 74.0657 174.3 73.8374 175.329 73.3809C176.357 72.9244 177.271 72.3538 177.957 71.5549C178.643 70.7561 179.214 69.729 179.557 68.5877C179.9 67.4465 180.129 66.077 180.129 64.5934V39.4863H189.957V64.5934C189.957 67.2183 189.5 69.6149 188.7 71.7832C187.9 73.9515 186.643 75.7775 185.043 77.3752C183.443 78.973 181.614 80.1142 179.329 81.0272C177.043 81.9402 174.529 82.2825 171.786 82.2825C168.929 82.2825 166.414 81.826 164.129 81.0272C161.843 80.1142 160.014 78.973 158.414 77.3752C156.814 75.7775 155.671 73.9515 154.757 71.7832C153.957 69.6149 153.5 67.2183 153.5 64.5934V39.4863H163.329V64.5934C163.329 66.077 163.557 67.4465 163.9 68.5877C164.243 69.729 164.814 70.7561 165.5 71.5549C166.186 72.3538 167.1 73.0386 168.129 73.495C169.271 73.8374 170.414 74.0657 171.786 74.0657Z" fill="#23428E"/>
<path d="M196.357 81.8261V51.6975H201.957C202.529 51.6975 202.986 51.8116 203.329 52.0399C203.671 52.2681 204.014 52.7246 204.129 53.1811L204.7 54.893C205.271 54.3224 205.843 53.8659 206.529 53.4094C207.1 52.9529 207.786 52.4964 208.471 52.2681C209.157 51.9258 209.957 51.6975 210.757 51.4693C211.557 51.241 212.471 51.241 213.5 51.241C215.1 51.241 216.586 51.5834 217.843 52.154C219.1 52.7246 220.243 53.5235 221.043 54.5506C221.957 55.5777 222.529 56.8331 222.986 58.2025C223.443 59.572 223.671 61.1698 223.671 62.7675V81.9402H214.757V62.7675C214.757 61.2839 214.414 60.1426 213.729 59.3438C213.043 58.5449 212.014 58.0884 210.757 58.0884C209.729 58.0884 208.814 58.3167 208.014 58.7732C207.1 59.2297 206.3 59.8003 205.5 60.485V81.9402H196.357" fill="#23428E"/>
<path d="M241.043 39.4863H231.1V81.826H241.043V39.4863Z" fill="#23428E"/>
<path d="M277.386 70.8702C277.614 70.8702 277.843 70.8702 278.072 70.9844C278.3 71.0985 278.529 71.2126 278.757 71.4409L282.643 75.5493C280.929 77.8318 278.757 79.4295 276.243 80.5707C273.614 81.712 270.643 82.2826 267.1 82.2826C263.9 82.2826 261.043 81.712 258.414 80.6848C255.9 79.5436 253.729 78.06 251.9 76.1199C250.072 74.1798 248.814 71.8973 247.786 69.2725C246.872 66.6477 246.414 63.7946 246.414 60.5991C246.414 57.4037 246.986 54.5506 248.014 51.9258C249.043 49.3009 250.643 47.0185 252.586 45.0784C254.529 43.1383 256.814 41.6547 259.557 40.6275C262.3 39.6004 265.272 39.0298 268.586 39.0298C270.186 39.0298 271.672 39.1439 273.043 39.4863C274.414 39.7146 275.786 40.1711 277.043 40.6275C278.3 41.084 279.443 41.7688 280.472 42.4535C281.5 43.1383 282.414 43.9371 283.214 44.736L279.9 49.1868C279.672 49.415 279.443 49.7574 279.1 49.8715C278.757 50.0998 278.414 50.2139 277.843 50.2139C277.5 50.2139 277.157 50.0998 276.814 49.9857C276.472 49.8715 276.129 49.6433 275.786 49.415C275.443 49.1868 275.1 48.9585 274.643 48.7303C274.186 48.5021 273.729 48.2738 273.157 48.0456C272.586 47.8173 271.9 47.5891 271.1 47.475C270.3 47.3608 269.386 47.2467 268.357 47.2467C266.529 47.2467 264.929 47.5891 263.443 48.1597C261.957 48.8444 260.7 49.6433 259.672 50.8987C258.643 52.0399 257.843 53.5235 257.157 55.1212C256.586 56.8331 256.243 58.659 256.243 60.7133C256.243 62.8816 256.586 64.8217 257.157 66.5336C257.729 68.2454 258.529 69.6149 259.557 70.7561C260.586 71.8974 261.729 72.8103 263.1 73.381C264.472 73.9516 265.957 74.2939 267.443 74.2939C268.357 74.2939 269.157 74.2939 269.843 74.1798C270.529 74.0657 271.214 73.9516 271.9 73.7233C272.586 73.4951 273.157 73.2668 273.729 72.9245C274.3 72.5821 274.872 72.1256 275.443 71.6691C275.672 71.4409 275.9 71.3267 276.243 71.2126C276.814 70.9844 277.043 70.8702 277.386 70.8702Z" fill="#23428E"/>
</svg>
